<svg xmlns="http://www.w3.org/2000/svg" fill="currentColor" class="vi" viewBox="0 0 16 16"><path d="M2.114 13.25H1.75A1.75 1.75 0 0 1 0 11.5V8.968c0-.519.23-1.012.63-1.344l1.006-.838L3.3 3.039A1.75 1.75 0 0 1 4.9 2h5.416c.722 0 1.37.443 1.63 1.116l1.398 3.593 1.136.567A2.75 2.75 0 0 1 16 9.736V11.5a1.75 1.75 0 0 1-1.75 1.75h-.364a2.501 2.501 0 0 1-4.772 0H6.886a2.501 2.501 0 0 1-4.772 0m2.557-9.602L3.404 6.5H7v-3H4.9a.25.25 0 0 0-.229.148M8.5 6.5h3.154l-1.105-2.84a.25.25 0 0 0-.233-.16H8.5zM12.573 8H2.522l-.932.776a.25.25 0 0 0-.09.192V11.5c0 .138.112.25.25.25h.364a2.501 2.501 0 0 1 4.772 0h2.228a2.501 2.501 0 0 1 4.772 0h.364a.25.25 0 0 0 .25-.25V9.736a1.25 1.25 0 0 0-.691-1.118zM4.5 13.5a1 1 0 1 0 0-2 1 1 0 0 0 0 2m7 0a1 1 0 1 0 0-2 1 1 0 0 0 0 2"/></svg>