<svg xmlns="http://www.w3.org/2000/svg" fill="currentColor" class="vi" viewBox="0 0 16 16"><path d="M5 2a2 2 0 0 1 2-2h2a2 2 0 0 1 2 2v2a2 2 0 0 1-2 2h-.25v1.25H12c.966 0 1.75.784 1.75 1.75v1H14a2 2 0 0 1 2 2v2a2 2 0 0 1-2 2h-2a2 2 0 0 1-2-2v-2a2 2 0 0 1 2-2h.25V9a.25.25 0 0 0-.25-.25H4a.25.25 0 0 0-.25.25v1H4a2 2 0 0 1 2 2v2a2 2 0 0 1-2 2H2a2 2 0 0 1-2-2v-2a2 2 0 0 1 2-2h.25V9c0-.966.784-1.75 1.75-1.75h3.25V6H7a2 2 0 0 1-2-2zm2-.5a.5.5 0 0 0-.5.5v2a.5.5 0 0 0 .5.5h2a.5.5 0 0 0 .5-.5V2a.5.5 0 0 0-.5-.5zm-5 10a.5.5 0 0 0-.5.5v2a.5.5 0 0 0 .5.5h2a.5.5 0 0 0 .5-.5v-2a.5.5 0 0 0-.5-.5zm12 0h-2a.5.5 0 0 0-.5.5v2a.5.5 0 0 0 .5.5h2a.5.5 0 0 0 .5-.5v-2a.5.5 0 0 0-.5-.5"/></svg>