<svg xmlns="http://www.w3.org/2000/svg" fill="currentColor" class="vi" viewBox="0 0 16 16"><path d="M4.5 5.56.22 1.28A.75.75 0 1 1 1.28.22l14.5 14.5a.75.75 0 1 1-1.06 1.06l-3.634-3.633a6 6 0 0 1-2.336.807V14.5h1.75a.75.75 0 0 1 0 1.5h-5a.75.75 0 0 1 0-1.5h1.75v-1.546A6 6 0 0 1 2 7V5.75a.75.75 0 0 1 1.5 0V7a4.5 4.5 0 0 0 6.481 4.042l-.76-.76A3.5 3.5 0 0 1 4.5 7zM7.938 9 6.001 7.061a2 2 0 0 0 1.937 1.937M10 3.5v3.44l1.281 1.28c.142-.38.219-.79.219-1.22V3.5a3.5 3.5 0 0 0-6.588-1.649l1.15 1.15A2 2 0 0 1 10 3.5m2.042 5.481A4.5 4.5 0 0 0 12.5 7V5.75a.75.75 0 0 1 1.5 0V7a5.97 5.97 0 0 1-.853 3.086z"/></svg>