<svg xmlns="http://www.w3.org/2000/svg" fill="currentColor" class="vi" viewBox="0 0 16 16"><path d="M8 3.977c2.192 0 4.333.801 6.58 2.31q.06.04.112.092l.947.947a1 1 0 0 1 .23 1.056l-1.09 2.925a1 1 0 0 1-1.181.62l-2.902-.73A1.75 1.75 0 0 1 9.376 9.4l.024-.416c.006-.102-.044-.167-.088-.191-.585-.325-.97-.43-1.303-.427-.338.003-.723.118-1.311.433-.051.028-.103.098-.097.2l.023.4a1.75 1.75 0 0 1-1.32 1.797l-2.902.73a1 1 0 0 1-1.18-.62L.13 8.382a1 1 0 0 1 .23-1.056l.947-.947a1 1 0 0 1 .112-.093C3.667 4.778 5.808 3.977 8 3.977M2.316 7.491l-.668.668.822 2.205 2.468-.622a.25.25 0 0 0 .188-.256l-.023-.401a1.71 1.71 0 0 1 .886-1.607c.676-.362 1.315-.604 2.006-.61.696-.007 1.345.226 2.044.614.593.328.894.964.859 1.587l-.024.417a.25.25 0 0 0 .188.256l2.468.622.822-2.205-.668-.668C11.62 6.118 9.786 5.477 8 5.477s-3.621.641-5.684 2.014"/></svg>