<svg xmlns="http://www.w3.org/2000/svg" fill="currentColor" class="vi" viewBox="0 0 16 16"><path d="M13.069 5.537q-.253-.084-.507-.159.043-.173.079-.347c.384-1.862.13-3.36-.722-3.853-.822-.472-2.163.019-3.519 1.2a9 9 0 0 0-.39.36 10 10 0 0 0-.26-.241C6.328 1.234 4.903.703 4.05 1.2c-.819.475-1.062 1.884-.719 3.647q.051.261.116.522a9 9 0 0 0-.581.184C1.196 6.131 0 7.043 0 7.987c0 .975 1.275 1.954 3.01 2.547q.209.072.424.135a11 11 0 0 0-.125.562c-.328 1.735-.072 3.11.747 3.582C4.9 15.3 6.32 14.8 7.7 13.59q.165-.145.328-.303.208.2.425.387c1.338 1.15 2.66 1.616 3.475 1.144.844-.488 1.119-1.966.763-3.766q-.043-.206-.094-.422.15-.044.294-.09C14.694 9.944 16 8.978 16 7.987c0-.946-1.231-1.865-2.931-2.45M8.84 2.884c1.162-1.012 2.247-1.409 2.74-1.125.528.303.732 1.528.4 3.138a5 5 0 0 1-.072.312 16 16 0 0 0-2.103-.33 16 16 0 0 0-1.331-1.66c.122-.116.24-.225.366-.335M5.225 9.61c.16.272.322.544.494.81a14 14 0 0 1-1.45-.235c.137-.45.31-.915.51-1.39q.213.413.446.815m-.947-3.76c.45-.1.928-.181 1.425-.244q-.25.39-.481.794-.231.4-.444.812a15 15 0 0 1-.5-1.362m.856 2.153q.312-.646.67-1.269.357-.621.762-1.215a19.6 19.6 0 0 1 2.868 0q.4.59.76 1.21.36.618.678 1.262a21 21 0 0 1-1.431 2.493c-.466.035-.95.05-1.441.05q-.736 0-1.425-.043a19 19 0 0 1-1.44-2.488m5.644 1.6q.239-.413.456-.834.3.678.528 1.384-.727.165-1.468.25.251-.395.484-.8m.45-2.39q-.22-.414-.453-.82a20 20 0 0 0-.478-.787c.503.063.984.147 1.434.25q-.216.693-.503 1.356M8.006 3.696q.493.536.925 1.119a21 21 0 0 0-1.86 0c.307-.404.623-.779.935-1.12M4.381 1.78c.525-.305 1.69.132 2.919 1.22q.116.105.237.219a16 16 0 0 0-1.34 1.66q-1.059.094-2.1.324-.059-.24-.11-.484c-.293-1.513-.1-2.653.394-2.938m-.765 8.238a8 8 0 0 1-.388-.122c-.666-.21-1.422-.54-1.969-.975a1.4 1.4 0 0 1-.587-.935c0-.571.987-1.303 2.412-1.8q.269-.092.541-.171.32 1.019.766 1.987c-.3.653-.56 1.328-.775 2.016m3.643 3.062a5.7 5.7 0 0 1-1.762 1.103 1.38 1.38 0 0 1-1.103.041c-.497-.287-.703-1.39-.422-2.875q.05-.263.116-.522 1.05.226 2.121.306a16.5 16.5 0 0 0 1.35 1.67q-.15.145-.3.277m.766-.76a15 15 0 0 1-.947-1.133 22 22 0 0 0 1.872-.004q-.432.595-.925 1.138m4.084.938a1.4 1.4 0 0 1-.515.979c-.497.287-1.556-.088-2.7-1.07a13 13 0 0 1-.397-.359q.718-.793 1.319-1.675a15 15 0 0 0 2.13-.328q.048.193.085.382c.153.675.178 1.378.078 2.071m.57-3.359a7 7 0 0 1-.267.081 16 16 0 0 0-.796-1.994q.449-.956.765-1.965.244.071.469.147c1.456.5 2.478 1.243 2.478 1.812 0 .613-1.09 1.403-2.65 1.919M8 9.431A1.431 1.431 0 1 0 8 6.57a1.431 1.431 0 0 0 0 2.862"/></svg>