<svg xmlns="http://www.w3.org/2000/svg" fill="currentColor" class="vi" viewBox="0 0 16 16"><path d="M13.275 1.744a.322.322 0 0 1 .6-.066l.01.017a.353.353 0 0 1-.127.457l-.87.553A3 3 0 0 0 11.5 5.233v.017c0 .414.336.75.75.75h2.5a.75.75 0 0 0 0-1.5h-1.558c.119-.212.29-.395.501-.53l.87-.553a1.853 1.853 0 0 0 .663-2.392l-.009-.018a1.822 1.822 0 0 0-3.398.373l-.047.188a.75.75 0 0 0 1.456.364zM1.87 1.328a.75.75 0 0 0-1.24.844L4.593 8 .63 13.828a.75.75 0 1 0 1.24.844L5.5 9.334l3.63 5.338a.75.75 0 1 0 1.24-.844L6.407 8l3.963-5.828a.75.75 0 1 0-1.24-.844L5.5 6.666z"/></svg>